# xmcd
#
# Track frame offsets: 
#        165
#        16227
#        35475
#        51530
#        68030
#        87223
#        101140
#        115734
#        134973
#        152340
#        173537
#        191885
#        206404
#
# Disc length: 3002 seconds
#
# Revision: 5
# Processed by: cddbd v1.5.2PL0 Copyright (c) Steve Scherf et al.
# Submitted via: ExactAudioCopyFreeDBPlugin 1.0
#
DISCID=b20bb80d
DTITLE=VLADIMÍR MIŠÍK and ETC... - Město z peřin
DYEAR=1996
DGENRE=Rock
TTITLE0=Pod Štvanickým mostem
TTITLE1=Město z peřin
TTITLE2=Když někoho mám rád
TTITLE3=Co jsem si vzal
TTITLE4=Konec básníka
TTITLE5=Zora zase hledá
TTITLE6=Čekání
TTITLE7=Kdo dnes přijde
TTITLE8=Děvenko hele
TTITLE9=Slova
TTITLE10=Za vodou
TTITLE11=Sedíš vedle mě
TTITLE12=Letní čas
EXTD=Original - Digitally Remastered 1996
EXTT0=
EXTT1=
EXTT2=
EXTT3=
EXTT4=
EXTT5=
EXTT6=
EXTT7=
EXTT8=
EXTT9=
EXTT10=
EXTT11=
EXTT12=
PLAYORDER=
